HIERARCHY
ROOT Hips
{
	OFFSET 0.000000 0.000000 0.000000
	CHANNELS 6 Xposition Yposition Zposition Xrotation Yrotation Zrotation
	JOINT LeftUpLeg_virtual
	{
		OFFSET 0.000000 0.000000 0.000000
		CHANNELS 3 Xrotation Yrotation Zrotation
		JOINT LeftUpLeg
		{
			OFFSET 10.205400 -3.823500 0.155100
			CHANNELS 3 Xrotation Yrotation Zrotation
			JOINT LeftLeg
			{
				OFFSET 0.708757 -12.982077 0.567790
				CHANNELS 3 Xrotation Yrotation Zrotation
				JOINT LeftFoot
				{
					OFFSET -0.708756 -10.717838 -2.184338
					CHANNELS 3 Xrotation Yrotation Zrotation
					JOINT LeftToeBase
					{
						OFFSET 0.108149 -7.191104 7.560241
						CHANNELS 3 Xrotation Yrotation Zrotation
						JOINT LeftToe_End
						{
							OFFSET 0.070230 0.081724 4.490308
							CHANNELS 3 Xrotation Yrotation Zrotation
							End Site
							{
								OFFSET 0 0 0
							}
						}
					}
				}
			}
		}
	}
	JOINT RightUpLeg_virtual
	{
		OFFSET 0.000000 0.000000 0.000000
		CHANNELS 3 Xrotation Yrotation Zrotation
		JOINT RightUpLeg
		{
			OFFSET -10.205400 -3.823500 0.005500
			CHANNELS 3 Xrotation Yrotation Zrotation
			JOINT RightLeg
			{
				OFFSET -0.708756 -12.982134 0.610632
				CHANNELS 3 Xrotation Yrotation Zrotation
				JOINT RightFoot
				{
					OFFSET 0.708754 -10.717769 -1.945823
					CHANNELS 3 Xrotation Yrotation Zrotation
					JOINT RightToeBase
					{
						OFFSET -0.108140 -7.191069 7.372968
						CHANNELS 3 Xrotation Yrotation Zrotation
						JOINT RightToe_End
						{
							OFFSET -0.070227 0.081735 4.479403
							CHANNELS 3 Xrotation Yrotation Zrotation
							End Site
							{
								OFFSET 0 0 0
							}
						}
					}
				}
			}
		}
	}
	JOINT Spine_virtual
	{
		OFFSET 0.000000 0.000000 0.000000
		CHANNELS 3 Xrotation Yrotation Zrotation
		JOINT Spine
		{
			OFFSET 0.000000 6.876099 0.125700
			CHANNELS 3 Xrotation Yrotation Zrotation
			JOINT Spine1
			{
				OFFSET 0.000000 5.730043 0.104720
				CHANNELS 3 Xrotation Yrotation Zrotation
				JOINT Spine1_split
				{
					OFFSET 0.000000 5.730043 0.104720
					CHANNELS 3 Xrotation Yrotation Zrotation
					JOINT Spine2
					{
						OFFSET 0.000000 5.730043 0.104720
						CHANNELS 3 Xrotation Yrotation Zrotation
						JOINT Neck_virtual
						{
							OFFSET 0.000000 0.000000 0.000000
							CHANNELS 3 Xrotation Yrotation Zrotation
							JOINT Neck
							{
								OFFSET 0.000000 10.314075 0.188496
								CHANNELS 3 Xrotation Yrotation Zrotation
								JOINT Head
								{
									OFFSET 0.000000 7.643700 -2.377400
									CHANNELS 3 Xrotation Yrotation Zrotation
									JOINT HeadTop_End
									{
										OFFSET 0.000000 43.788605 -13.619600
										CHANNELS 3 Xrotation Yrotation Zrotation
										End Site
										{
											OFFSET 0 0 0
										}
									}
								}
							}
						}
						JOINT LeftShoulder_virtual
						{
							OFFSET 0.000000 0.000000 0.000000
							CHANNELS 3 Xrotation Yrotation Zrotation
							JOINT LeftShoulder
							{
								OFFSET 2.196100 4.412489 0.087492
								CHANNELS 3 Xrotation Yrotation Zrotation
								JOINT LeftShoulder_split
								{
									OFFSET 2.196100 4.412489 0.087492
									CHANNELS 3 Xrotation Yrotation Zrotation
									JOINT LeftArm
									{
										OFFSET 8.771219 -2.981674 -0.026999
										CHANNELS 3 Xrotation Yrotation Zrotation
										JOINT LeftForeArm
										{
											OFFSET 8.512804 0.000000 -0.000000
											CHANNELS 3 Xrotation Yrotation Zrotation
											JOINT LeftHand
											{
												OFFSET 18.484802 0.000000 -0.000000
												CHANNELS 3 Xrotation Yrotation Zrotation
												End Site
												{
													OFFSET 0 0 0
												}
											}
										}
									}
								}
							}
						}
						JOINT RightShoulder_virtual
						{
							OFFSET 0.000000 0.000000 0.000000
							CHANNELS 3 Xrotation Yrotation Zrotation
							JOINT RightShoulder
							{
								OFFSET -2.196100 4.412496 0.070690
								CHANNELS 3 Xrotation Yrotation Zrotation
								JOINT RightShoulder_split
								{
									OFFSET -2.196100 4.412496 0.070690
									CHANNELS 3 Xrotation Yrotation Zrotation
									JOINT RightArm
									{
										OFFSET -8.771282 -2.981682 -0.094208
										CHANNELS 3 Xrotation Yrotation Zrotation
										JOINT RightForeArm
										{
											OFFSET -8.494598 0.000000 0.000000
											CHANNELS 3 Xrotation Yrotation Zrotation
											JOINT RightHand
											{
												OFFSET -18.483803 0.000000 0.000001
												CHANNELS 3 Xrotation Yrotation Zrotation
												End Site
												{
													OFFSET 0 0 0
												}
											}
										}
									}
								}
							}
						}
					}
				}
			}
		}
	}
}
MOTION
Frames: 7
Frame Time: 0.03333333
4.631173 26.449846 -1.535215 0.000000 0.000000 0.000000 29.490339 -83.852798 31.266929 -34.826827 -8.681094 28.130158 52.984004 -11.430061 12.678359 -22.896044 0.118971 -29.878430 -1.341512 0.889590 -2.683613 0.000000 0.000000 0.000000 18.094874 -82.223224 20.896375 -10.602179 5.649754 -31.664737 45.042994 14.382200 -12.533880 -28.966709 -5.340741 31.203221 -16.830250 2.088983 -0.765582 0.000000 0.000000 0.000000 26.316833 -78.915637 27.387773 2.104821 4.736520 2.457663 0.295098 3.445788 1.156812 1.569296 -0.965365 0.719152 0.000000 0.000000 0.000000 0.864241 2.963952 0.949712 -3.468972 7.667791 -1.351299 2.844402 40.821715 -4.980607 0.000000 0.000000 0.000000 0.997784 3.400094 1.108189 1.513663 11.346258 -10.382699 -3.362555 -2.139338 -2.248989 -10.306265 10.431361 -65.207379 -179.045869 -63.195547 -176.968876 0.000000 0.000000 0.000000 1.880289 3.569921 0.643264 1.245131 9.260689 10.087255 0.709093 3.716496 2.575942 -13.286567 34.469496 48.214684 -179.540142 71.126940 179.166968 0.000000 0.000000 0.000000 
4.657767 26.342836 -1.607597 0.000000 0.000000 0.000000 21.662597 -83.774866 23.632881 -35.134121 -8.308122 27.096947 52.436680 -12.615502 13.768516 -23.329869 -1.300955 -29.735372 -2.682604 1.108572 -2.647934 0.000000 0.000000 0.000000 12.598193 -80.791043 15.400198 -9.147566 3.986568 -30.861240 45.452204 12.483892 -12.461412 -28.368470 -6.697330 29.898443 -16.996774 1.440127 1.119419 0.000000 0.000000 0.000000 23.403469 -78.326724 24.290840 1.894608 4.999617 2.355819 0.251013 3.591153 1.131168 1.577167 -1.818189 0.811622 0.000000 0.000000 0.000000 0.776757 3.128935 0.905545 -2.684690 7.179174 -1.406092 3.058378 39.551453 -4.691059 0.000000 0.000000 0.000000 1.014549 3.457963 1.096557 1.381870 11.031851 -9.354227 -2.627410 -1.704143 -3.178397 -8.374852 8.027128 -65.501207 -179.523080 -62.674827 -177.341887 0.000000 0.000000 0.000000 1.615498 3.691873 0.652755 1.304164 8.727903 9.249608 0.445832 4.461547 2.558791 -12.166442 33.159155 48.069478 -178.635606 69.730583 178.155840 0.000000 0.000000 0.000000 
4.628750 27.410633 -1.764034 0.000000 0.000000 0.000000 12.679455 -80.853894 14.754127 -35.003606 -7.502117 24.710243 46.706971 -14.788302 13.759311 -18.533927 -4.821247 -31.482838 -2.930168 1.175777 -2.066046 0.000000 0.000000 0.000000 9.700013 -77.489493 12.636256 -7.833435 1.809915 -29.385400 42.811950 11.185497 -12.258269 -21.615792 -6.325285 29.975556 -20.823905 0.107481 3.867527 0.000000 0.000000 0.000000 18.218568 -76.346284 19.088256 1.479276 5.022247 2.070487 0.061713 3.642129 1.021989 1.272812 -2.581542 0.806508 0.000000 0.000000 0.000000 0.678223 3.183981 0.780548 -1.839755 6.707364 -1.462430 3.158270 37.574831 -3.952553 0.000000 0.000000 0.000000 0.881931 3.448436 0.983931 1.210777 10.241467 -7.960019 -1.551983 -1.028123 -3.709941 -6.532790 4.239344 -63.970486 -179.815672 -61.959890 -177.722506 0.000000 0.000000 0.000000 1.268907 3.679811 0.575259 1.283758 8.121248 8.292720 0.146727 4.890155 2.366186 -10.460687 30.708787 47.408343 -178.399760 67.118958 177.838387 0.000000 0.000000 0.000000 
4.557904 29.345104 -2.002970 0.000000 0.000000 0.000000 8.686148 -75.782137 10.737301 -33.797023 -6.002299 21.644496 37.306261 -16.533077 12.252723 -10.086439 -9.341645 -32.865590 -2.105581 1.119436 -1.153298 0.000000 0.000000 0.000000 8.047268 -73.052452 11.188868 -7.249929 -0.337476 -27.531159 38.635891 10.737950 -12.039061 -11.297099 -4.364882 31.230097 -26.162886 -1.895993 6.514922 0.000000 0.000000 0.000000 13.273531 -73.069220 14.373824 1.040478 4.821498 1.678206 -0.170747 3.587629 0.868572 0.833463 -2.629809 0.827318 0.000000 0.000000 0.000000 0.544042 3.128642 0.628710 -1.147898 6.271722 -1.589413 3.093952 35.074172 -2.924932 0.000000 0.000000 0.000000 0.637726 3.375739 0.832780 1.068039 9.070591 -6.570053 -0.466965 -0.337536 -3.902078 -5.036208 -0.285469 -61.157049 -179.859672 -61.306166 -177.959677 0.000000 0.000000 0.000000 0.949941 3.558833 0.442185 1.176783 7.539161 7.339218 -0.291459 4.889469 2.004837 -8.378183 27.417100 46.085137 -178.670276 64.519825 178.042527 0.000000 0.000000 0.000000 
4.417605 31.618000 -2.284018 0.000000 0.000000 0.000000 7.504792 -69.855077 9.416980 -31.474406 -3.531865 18.498941 27.505877 -16.035005 9.997504 -1.613838 -12.277567 -30.917971 -0.506423 0.956415 -0.521424 0.000000 0.000000 0.000000 6.798352 -67.929558 10.171721 -7.480341 -2.399280 -25.195284 34.803198 9.992349 -11.755493 -2.678143 -2.343747 31.221621 -28.618663 -3.958712 8.328694 0.000000 0.000000 0.000000 9.277886 -68.852658 10.878813 0.718960 4.428391 1.319702 -0.295537 3.435450 0.712954 0.332454 -2.029188 0.779004 0.000000 0.000000 0.000000 0.378404 2.971546 0.495588 -0.798905 5.862027 -1.814751 2.848215 32.390799 -1.819819 0.000000 0.000000 0.000000 0.426288 3.234147 0.691579 1.030424 7.644655 -5.677471 0.137550 0.089066 -3.769678 -3.894053 -4.886477 -57.886277 -179.699449 -60.953038 -178.109887 0.000000 0.000000 0.000000 0.765245 3.376635 0.320811 1.019617 7.149016 6.509687 -0.622578 4.641907 1.406548 -6.371302 23.727012 44.378317 -179.193237 62.927994 178.532826 0.000000 0.000000 0.000000 
4.238180 33.662205 -2.521549 0.000000 0.000000 0.000000 6.827383 -64.341038 8.668971 -28.056378 -0.302860 15.619154 19.993034 -13.257965 8.411180 3.714055 -11.828782 -25.717180 0.666240 0.728684 -0.267218 0.000000 0.000000 0.000000 5.297184 -62.790755 9.002644 -8.907964 -3.910011 -22.551946 32.690293 8.312280 -11.499430 0.700490 -1.744689 28.276032 -24.427680 -4.960337 9.101034 0.000000 0.000000 0.000000 6.536513 -64.163876 8.729345 0.680810 3.885051 1.028148 -0.218470 3.185900 0.579887 0.556911 -1.307575 0.677546 0.000000 0.000000 0.000000 0.225942 2.699908 0.414163 -0.946084 5.529781 -2.172262 2.345087 29.650305 -0.763852 0.000000 0.000000 0.000000 0.348370 2.983487 0.584290 1.093196 6.129549 -5.487759 0.059380 0.176052 -3.390528 -3.266691 -8.868998 -55.082969 -179.516810 -61.318447 -178.314096 0.000000 0.000000 0.000000 0.770749 3.133368 0.237945 0.845388 6.993684 5.921269 -0.880022 4.317561 0.716402 -4.840963 20.140085 42.587134 -179.760948 62.934333 179.132393 0.000000 0.000000 0.000000 
4.076699 35.107414 -2.692255 0.000000 0.000000 0.000000 6.191073 -59.995425 8.209117 -24.113474 2.979764 13.626299 16.249076 -9.962576 7.715642 4.612431 -8.921283 -20.663747 0.341929 0.504491 -0.014000 0.000000 0.000000 0.000000 3.814142 -57.767438 7.840318 -11.774919 -4.414560 -20.380670 32.708202 5.938924 -10.918560 -0.944242 -1.921230 23.182150 -14.674223 -4.457078 8.783645 0.000000 0.000000 0.000000 5.028291 -59.258175 7.718760 0.828719 3.237676 0.785296 0.110527 2.821865 0.454961 1.128471 -0.587526 0.571289 0.000000 0.000000 0.000000 0.170230 2.334031 0.390474 -1.444908 5.188056 -2.569944 1.680438 27.029480 0.076359 0.000000 0.000000 0.000000 0.444041 2.611845 0.501189 1.199365 4.673958 -5.983484 -0.698117 0.018197 -2.779827 -3.382750 -11.729134 -53.249149 -179.412336 -62.479394 -178.647464 0.000000 0.000000 0.000000 0.926328 2.827541 0.186169 0.739091 7.015695 5.690642 -0.981790 4.007948 -0.035973 -4.038479 17.033423 41.189155 179.739747 64.618453 179.742589 0.000000 0.000000 0.000000 
